<svg id="图层_1" data-name="图层 1" xmlns="http://www.w3.org/2000/svg" viewBox="0 0 72.52019 73.44588"><defs><style>.cls-1{fill:#454545;}.cls-2,.cls-4{fill:none;stroke:#454545;}.cls-3{fill:#444;}.cls-4{stroke-width:2px;}</style></defs><path class="cls-1" d="M6.96484,35.42489a2.92473,2.92473,0,0,1-1.64746,2.09717,3.018,3.018,0,0,1-1.57324.44921,3.38894,3.38894,0,0,1-1.19824-.22461A3.68237,3.68237,0,0,1,.44922,35.87411,4.13048,4.13048,0,0,1,0,34.002,7.28794,7.28794,0,0,1,.0752,32.9537,100.53093,100.53093,0,0,0,2.32129,19.922a3.35122,3.35122,0,0,1,1.19824-2.24658,3.08213,3.08213,0,0,1,2.02246-.749,1.43042,1.43042,0,0,1,.44922.0752A3.37144,3.37144,0,0,1,8.3877,18.2745a3.37969,3.37969,0,0,1,.82421,2.24658Q9.21191,25.689,6.96484,35.42489Z"/><path class="cls-1" d="M18.94727,15.3536a.3217.3217,0,0,0,.15039.26221.38664.38664,0,0,0,.374.03759,5.01425,5.01425,0,0,1,1.72266-.2998,4.80846,4.80846,0,0,1,1.64746.2998,4.35388,4.35388,0,0,1,2.47168,2.32178,72.23514,72.23514,0,0,1,2.8457,7.26416,4.02008,4.02008,0,0,1,.22461,1.27344,4.12523,4.12523,0,0,1-.374,1.72265,4.53154,4.53154,0,0,1-2.24707,2.17188,2.81021,2.81021,0,0,1-1.27344.29932,2.744,2.744,0,0,1-1.34766-.37452,3.17778,3.17778,0,0,1-1.72265-2.022q-.97413-3.36987-2.24707-6.66553a.21912.21912,0,0,0-.14942-.0747.06657.06657,0,0,0-.07519.0747V68.52743a4.21589,4.21589,0,0,1-1.31055,3.1455,4.31091,4.31091,0,0,1-3.10742,1.273h-.15039a4.30932,4.30932,0,0,1-3.10743-1.273,4.21228,4.21228,0,0,1-1.31054-3.1455V5.84237a4.21231,4.21231,0,0,1,1.31054-3.14551,4.30738,4.30738,0,0,1,3.10743-1.27295h.15039a4.309,4.309,0,0,1,3.10742,1.273,4.21591,4.21591,0,0,1,1.31055,3.14551Z"/><path class="cls-2" d="M24.2516,67.511c-.017.16659.13786.26123.19465.29971a26.1333,26.1333,0,0,1,2.76422,2.89239,6.17567,6.17567,0,0,0,3.01542,1.88876,8.00207,8.00207,0,0,0,2.09365.29478A7.45569,7.45569,0,0,0,34.162,72.6511a83.95022,83.95022,0,0,0,14.40652-5.19446.931.931,0,0,1,1.00478,0A71.16119,71.16119,0,0,0,63.30922,72.6511a6.98372,6.98372,0,0,0,1.968.29478,7.88,7.88,0,0,0,2.05215-.29478,7.46428,7.46428,0,0,0,3.35071-1.83026q.3342-.29555.66948-.64882a1.89918,1.89918,0,0,0,.67058-1.35769,1.66574,1.66574,0,0,0-.1671-.70886,2.6527,2.6527,0,0,0-2.01064-1.53394,67.6681,67.6681,0,0,1-12.39587-3.95492q-.58648-.23551-.16819-.59033A39.58649,39.58649,0,0,0,69.08887,47.15177a1.77338,1.77338,0,0,0,.1671-.76736,2.03629,2.03629,0,0,0-.4183-1.18028,3.48374,3.48374,0,0,0-2.09473-1.29881l-1.84246-.53106a9.32818,9.32818,0,0,0-1.75835-.177c-.39209,0-.81038.02-1.25707.05888a1.26862,1.26862,0,0,1-.41829.05888H30.97948a3.16508,3.16508,0,0,0-1.801.53146,1.53809,1.53809,0,0,0-.79617,1.29842v1.41656A2.77283,2.77283,0,0,0,29.765,48.83386a5.44894,5.44894,0,0,0,3.224.974h6.70141a.14862.14862,0,0,1,.1256.05927c.0273.03964.01311.05888-.04259.05888l-3.43371.76735a3.82106,3.82106,0,0,0-2.68013,1.71173,1.97325,1.97325,0,0,0-.33529,1.06252,2.22579,2.22579,0,0,0,.58648,1.41657,42.02471,42.02471,0,0,0,7.11971,7.024q.41775.35443-.0841.59033a70.93914,70.93914,0,0,1-16.249,4.84043c-.41.08482-.44923.13741-.44713.17476m16.612-17.35174q-.08355-.11718.04259-.2359a.41183.41183,0,0,1,.2927-.11815h15.1601a.39206.39206,0,0,1,.33528.11815.19031.19031,0,0,1,0,.2359,31.05791,31.05791,0,0,1-7.2868,7.43726.687.687,0,0,1-.92178,0A32.20472,32.20472,0,0,1,40.86232,50.16192Z"/><path class="cls-3" d="M24.2516,67.511c-.017.16659.13786.26123.19465.29971a26.1333,26.1333,0,0,1,2.76422,2.89239,6.17567,6.17567,0,0,0,3.01542,1.88876,8.00207,8.00207,0,0,0,2.09365.29478A7.45569,7.45569,0,0,0,34.162,72.6511a83.95022,83.95022,0,0,0,14.40652-5.19446.931.931,0,0,1,1.00478,0A71.16119,71.16119,0,0,0,63.30922,72.6511a6.98372,6.98372,0,0,0,1.968.29478,7.88,7.88,0,0,0,2.05215-.29478,7.46428,7.46428,0,0,0,3.35071-1.83026q.3342-.29555.66948-.64882a1.89918,1.89918,0,0,0,.67058-1.35769,1.66574,1.66574,0,0,0-.1671-.70886,2.6527,2.6527,0,0,0-2.01064-1.53394,67.6681,67.6681,0,0,1-12.39587-3.95492q-.58648-.23551-.16819-.59033A39.58649,39.58649,0,0,0,69.08887,47.15177a1.77338,1.77338,0,0,0,.1671-.76736,2.03629,2.03629,0,0,0-.4183-1.18028,3.48374,3.48374,0,0,0-2.09473-1.29881l-1.84246-.53106a9.32818,9.32818,0,0,0-1.75835-.177c-.39209,0-.81038.02-1.25707.05888a1.26862,1.26862,0,0,1-.41829.05888H30.97948a3.16508,3.16508,0,0,0-1.801.53146,1.53809,1.53809,0,0,0-.79617,1.29842v1.41656A2.77283,2.77283,0,0,0,29.765,48.83386a5.44894,5.44894,0,0,0,3.224.974h6.70141a.14862.14862,0,0,1,.1256.05927c.0273.03964.01311.05888-.04259.05888l-3.43371.76735a3.82106,3.82106,0,0,0-2.68013,1.71173,1.97325,1.97325,0,0,0-.33529,1.06252,2.22579,2.22579,0,0,0,.58648,1.41657,42.02471,42.02471,0,0,0,7.11971,7.024q.41775.35443-.0841.59033a70.93914,70.93914,0,0,1-16.249,4.84043c-.41.08482-.44923.13741-.44713.17476m16.612-17.35174q-.08355-.11718.04259-.2359a.41183.41183,0,0,1,.2927-.11815h15.1601a.39206.39206,0,0,1,.33528.11815.19031.19031,0,0,1,0,.2359,31.05791,31.05791,0,0,1-7.2868,7.43726.687.687,0,0,1-.92178,0A32.20472,32.20472,0,0,1,40.86232,50.16192Z"/><path class="cls-1" d="M35.05365,13.44765q-.50754,0-.50755.47431v1.066a2.99011,2.99011,0,0,1-1.23152,2.37,4.78122,4.78122,0,0,1-5.87125,0,2.98581,2.98581,0,0,1-1.23247-2.37V10.66356a3.06646,3.06646,0,0,1,1.26839-2.48821A4.69179,4.69179,0,0,1,30.48765,7.168h12.974q.57984,0,.58031-.47354V3.49478a3.09731,3.09731,0,0,1,1.23153-2.48822A4.65769,4.65769,0,0,1,48.31782,0h.6531a4.69483,4.69483,0,0,1,3.00745,1.00656,3.06908,3.06908,0,0,1,1.26839,2.48822V6.69447q0,.47393.50754.47354H67.74341a4.69365,4.69365,0,0,1,3.0084,1.00734,3.069,3.069,0,0,1,1.26838,2.48821v4.20626a3.09475,3.09475,0,0,1-1.26838,2.45886,4.60558,4.60558,0,0,1-3.0084,1.03669H67.5988a4.60378,4.60378,0,0,1-3.0084-1.03669A3.09208,3.09208,0,0,1,63.322,14.86982V13.922q0-.47393-.50754-.47431Z"/><path class="cls-1" d="M36.66045,28.66139a4.53231,4.53231,0,0,1-2.93208,1.21921,6.20387,6.20387,0,0,1-.82443.06124,6.94346,6.94346,0,0,1-2.65727-.48753,2.46643,2.46643,0,0,1-1.65-1.64708v-.42708a2.0211,2.0211,0,0,1,.73361-1.5246,15.449,15.449,0,0,0,3.11489-4.63585A3.36887,3.36887,0,0,1,34.37,19.57342a4.46425,4.46425,0,0,1,1.83285-.36584,5.07965,5.07965,0,0,1,1.09923.12168,4.85957,4.85957,0,0,1,2.56528,1.34168,2.02869,2.02869,0,0,1,.64161,1.40292,1.62187,1.62187,0,0,1-.1828.73169A18.01488,18.01488,0,0,1,36.66045,28.66139Z"/><path class="cls-4" d="M68.82254,36.2852a2.63772,2.63772,0,0,1,1.558,2.25629,2.83148,2.83148,0,0,1-1.64885,2.44,6.45028,6.45028,0,0,1-3.48289.9146H64.974a6.81216,6.81216,0,0,1-3.6645-1.09752q-4.39812-2.80465-11.17871-6.648-.55022-.3054-.82562.12168-3.8479,4.94005-11.54552,7.868a7.19963,7.19963,0,0,1-2.29046.36584,6.00173,6.00173,0,0,1-1.46605-.18292,7.20867,7.20867,0,0,1-3.11488-1.5246,2.11614,2.11614,0,0,1-.82562-1.58584,1.93855,1.93855,0,0,1,.092-.54876,2.76106,2.76106,0,0,1,1.83285-1.70832,24.21525,24.21525,0,0,0,6.27637-3.35381,13.40926,13.40926,0,0,0,3.7577-4.48315,20.75371,20.75371,0,0,0,1.87826-5.24584,43.78178,43.78178,0,0,0,.73242-6.67819,2.89554,2.89554,0,0,1,1.558-2.25708A6.4374,6.4374,0,0,1,49.672,14.023a6.27259,6.27259,0,0,1,3.39089.91461,2.613,2.613,0,0,1,1.282,2.13539,37.619,37.619,0,0,1-1.55685,10.063c-.06213.28552.09081.52888.45762.73248Q64.1496,33.53981,68.82254,36.2852Z"/><path class="cls-1" d="M68.82254,36.2852a2.63772,2.63772,0,0,1,1.558,2.25629,2.83148,2.83148,0,0,1-1.64885,2.44,6.45028,6.45028,0,0,1-3.48289.9146H64.974a6.81216,6.81216,0,0,1-3.6645-1.09752q-4.39812-2.80465-11.17871-6.648-.55022-.3054-.82562.12168-3.8479,4.94005-11.54552,7.868a7.19963,7.19963,0,0,1-2.29046.36584,6.00173,6.00173,0,0,1-1.46605-.18292,7.20867,7.20867,0,0,1-3.11488-1.5246,2.11614,2.11614,0,0,1-.82562-1.58584,1.93855,1.93855,0,0,1,.092-.54876,2.76106,2.76106,0,0,1,1.83285-1.70832,24.21525,24.21525,0,0,0,6.27637-3.35381,13.40926,13.40926,0,0,0,3.7577-4.48315,20.75371,20.75371,0,0,0,1.87826-5.24584,43.78178,43.78178,0,0,0,.73242-6.67819,2.89554,2.89554,0,0,1,1.558-2.25708A6.4374,6.4374,0,0,1,49.672,14.023a6.27259,6.27259,0,0,1,3.39089.91461,2.613,2.613,0,0,1,1.282,2.13539,37.619,37.619,0,0,1-1.55685,10.063c-.06213.28552.09081.52888.45762.73248Q64.1496,33.53981,68.82254,36.2852Z"/><path class="cls-1" d="M59.65948,20.85386a5.04176,5.04176,0,0,1,2.84128-1.8292,6.91954,6.91954,0,0,1,2.19846-.36664,6.1485,6.1485,0,0,1,1.74085.24416A3.63452,3.63452,0,0,1,69.00654,20.488a1.77805,1.77805,0,0,1-.36681,2.31753q-1.92485,2.19624-3.7565,4.02584A5.29612,5.29612,0,0,1,62.042,28.23431a7.608,7.608,0,0,1-1.64885.18292,8.158,8.158,0,0,1-1.92485-.24416,3.19042,3.19042,0,0,1-2.01565-1.40292,2.12841,2.12841,0,0,1-.18281-.85336,1.78453,1.78453,0,0,1,.45761-1.15956Q58.28485,22.86758,59.65948,20.85386Z"/></svg>